<?xml version="1.0" standalone="no"?>
<!DOCTYPE svg PUBLIC "-//W3C//DTD SVG 1.1//EN" "http://www.w3.org/Graphics/SVG/1.1/DTD/svg11.dtd" >
<!--
2013-9-30: Created.
-->
<svg>
<metadata>
Created by iconfont
</metadata>
<defs>

<font id="iconfont" horiz-adv-x="1024" >
  <font-face
    font-family="iconfont"
    font-weight="500"
    font-stretch="normal"
    units-per-em="1024"
    ascent="896"
    descent="-128"
  />
    <missing-glyph />
    
    <glyph glyph-name="bianzu15" unicode="&#58898;" d="M744.730616 407.269908m-46.545169 0a46.545169 46.545169 0 1 1 93.090337 0 46.545169 46.545169 0 1 1-93.090337 0ZM884.366122 453.815077a46.545169 46.545169 0 0 0 46.428806-43.054281L930.911291 407.269908v-372.361351a162.908091 162.908091 0 0 0-157.322671-162.815001L768.0032-127.999535H232.733757a46.545169 46.545169 0 0 0-3.490887 92.973975L232.733757-34.909197h535.269443a69.817753 69.817753 0 0 1 69.70139 65.721779L837.820953 34.908557V407.269908a46.545169 46.545169 0 0 0 46.545169 46.545169zM139.64342 453.815077a46.545169 46.545169 0 0 0 46.428806-43.054281L186.188588 407.269908v-302.543598a46.545169 46.545169 0 0 0-92.973974-3.490888L93.098251 104.72631V407.269908a46.545169 46.545169 0 0 0 46.545169 46.545169zM486.637654 888.477137a46.545169 46.545169 0 0 0 47.359709 2.001442l3.374525-2.001442 465.451689-302.543598a46.545169 46.545169 0 0 0-47.452799-80.011145l-3.281435 1.954897L511.981498 793.967172 71.920199 507.877291a46.545169 46.545169 0 0 0-62.184346 10.542481l-2.210895 3.118526a46.545169 46.545169 0 0 0 10.54248 62.184346l3.118527 2.210895 465.451689 302.543598zM512.004771 337.452155a162.908091 162.908091 0 0 0 162.815001-157.322671L674.912862 174.544063v-69.817753a46.545169 46.545169 0 0 0-92.973975-3.490888L581.822524 104.72631v69.817753a69.817753 69.817753 0 0 1-139.519144 4.095975L442.187018 174.544063v-69.817753a46.545169 46.545169 0 0 0-92.973975-3.490888L349.09668 104.72631v69.817753a162.908091 162.908091 0 0 0 162.908091 162.908092z"  horiz-adv-x="1024" />

    
    <glyph glyph-name="bianzu26" unicode="&#58899;" d="M972.799514 486.400205a51.199974 51.199974 0 0 0 3.839998-102.271949L972.799514 384.000256H665.599667a102.399949 102.399949 0 0 1-5.119997-204.671898L665.599667 179.200358h307.199847a51.199974 51.199974 0 0 0 3.839998-102.271948L972.799514 76.80041H665.599667a204.799898 204.799898 0 0 0-6.399997 409.497395L665.599667 486.400205h307.199847zM844.799578 691.200102a179.19991 179.19991 0 0 0 179.09751-173.055913L1023.999488 512.000192v-460.79977a179.19991 179.19991 0 0 0-173.055913-179.09751L844.799578-127.999488H153.599923a51.199974 51.199974 0 0 0-3.839998 102.271949L153.599923-25.599539h691.199655a76.799962 76.799962 0 0 1 76.671961 72.294364L921.599539 51.200422V512.000192a76.799962 76.799962 0 0 1-72.294364 76.671962L844.799578 588.800154H179.19991a76.799962 76.799962 0 0 1-76.671961-72.294364L102.399949 512.000192v-383.999808a51.199974 51.199974 0 0 0-102.271949-3.839998L0 128.000384V512.000192a179.19991 179.19991 0 0 0 173.055913 179.09751L179.19991 691.200102h665.599668zM588.799706 896a179.19991 179.19991 0 0 0 179.09751-173.055913L767.999616 716.80009v-76.799962a51.199974 51.199974 0 0 0-102.271949-3.839998L665.599667 640.000128V716.80009a76.799962 76.799962 0 0 1-72.294364 76.671961L588.799706 793.600051H179.19991a76.799962 76.799962 0 0 1-76.671961-72.294364L102.399949 716.80009v-383.999808a51.199974 51.199974 0 0 0-102.271949-3.839998L0 332.800282V716.80009A179.19991 179.19991 0 0 0 173.055913 895.8976L179.19991 896h409.599796zM665.599667 230.400333a51.199974 51.199974 0 1 1 0 102.399949 51.199974 51.199974 0 0 1 0-102.399949z"  horiz-adv-x="1024" />

    
    <glyph glyph-name="bianzu20" unicode="&#58900;" d="M628.259279-34.719351a46.535968 46.535968 0 0 0 3.490198-92.955595L628.259279-127.791286H395.579442a46.535968 46.535968 0 0 0-3.490198 92.955595L395.579442-34.719351h232.679837zM860.939117 500.63042a46.535968 46.535968 0 0 0 46.535968-46.535968C907.475085 235.53828 730.405728 58.352584 511.919361 58.352584S116.363636 235.515013 116.363636 454.094452a46.535968 46.535968 0 1 0 93.071935 0C209.435571 286.913989 344.855237 151.424519 511.919361 151.424519s302.483789 135.48947 302.483789 302.669933a46.535968 46.535968 0 0 0 46.535967 46.535968zM511.919361 151.424519a46.535968 46.535968 0 0 0 46.419627-43.04577L558.455328 104.888552v-186.143871a46.535968 46.535968 0 0 0-92.955595-3.490197L465.383393-81.255319v186.143871a46.535968 46.535968 0 0 0 46.535968 46.535967zM511.919361 896c113.594297 0 206.061264-90.512457 209.318782-203.362178l0.093072-6.189284v-232.400622C721.331215 338.382769 627.4449 244.496454 511.919361 244.496454c-113.547761 0-206.061264 90.512457-209.318782 203.245839L302.507507 453.908308V686.727754l0.093072 6.142748c3.210982 110.639263 92.513503 199.825445 203.129498 203.036426L511.919361 896z m0-93.071935a116.409723 116.409723 0 0 1-116.223579-111.174427L395.579442 686.588146v-232.679838c0-64.196367 52.120284-116.339919 116.339919-116.339919a116.526063 116.526063 0 0 1 116.223579 111.453643l0.116339 5.025884v232.400622A116.432991 116.432991 0 0 1 511.919361 802.928065zM511.919361 453.908308m-46.535968 0a46.535968 46.535968 0 1 1 93.071935 0 46.535968 46.535968 0 1 1-93.071935 0Z"  horiz-adv-x="1024" />

    
    <glyph glyph-name="bianzu19" unicode="&#58901;" d="M692.705475 896a210.823405 210.823405 0 0 0 210.702935-203.595174L903.52888 685.176595v-602.352587a210.823405 210.823405 0 0 0-203.595174-210.702935L692.705475-127.999398H180.705776a60.235259 60.235259 0 0 0-4.517644 120.31993L180.705776-7.52888h511.999699a90.352888 90.352888 0 0 1 90.2023 85.052185L783.058363 82.824008V685.176595a90.352888 90.352888 0 0 1-85.052185 90.202299L692.705475 775.529483H210.823405a90.352888 90.352888 0 0 1-90.202299-85.052186L120.470517 685.176595v-511.999699a60.235259 60.235259 0 0 0-120.319929-4.517645L0 173.176896V685.176595a210.823405 210.823405 0 0 0 203.595174 210.702934L210.823405 896h481.88207zM1113.478874 676.59307l-301.176293-180.705776A60.235259 60.235259 0 0 1 783.058363 444.23556v-120.470518a60.235259 60.235259 0 0 1 29.244218-51.651734l301.176293-180.705776c40.1468-24.094103 91.226299 4.818821 91.2263 51.651734V624.941336c0 46.832914-51.079499 75.745838-91.2263 51.651734zM1084.234656 518.595987v-269.161254l-180.705776 108.423466v52.314322l180.705776 108.423466zM602.352587 233.412154a60.235259 60.235259 0 0 0 4.517644-120.319929L602.352587 112.941637H301.176293a60.235259 60.235259 0 0 0-4.517644 120.319929L301.176293 233.412154h301.176294zM602.352587 594.823707m-60.235259 0a60.235259 60.235259 0 1 1 120.470518 0 60.235259 60.235259 0 1 1-120.470518 0Z"  horiz-adv-x="1204" />

    
    <glyph glyph-name="bianzu16" unicode="&#58902;" d="M844.799578 896a179.19991 179.19991 0 0 0 179.09751-173.055913L1023.999488 716.80009v-665.599668a179.19991 179.19991 0 0 0-173.055913-179.09751L844.799578-127.999488H153.599923a51.199974 51.199974 0 0 0-3.839998 102.271949L153.599923-25.599539h691.199655a76.799962 76.799962 0 0 1 76.671961 72.294364L921.599539 51.200422V716.80009a76.799962 76.799962 0 0 1-72.294364 76.671961L844.799578 793.600051H179.19991a76.799962 76.799962 0 0 1-76.671961-72.294364L102.399949 716.80009v-588.799706a51.199974 51.199974 0 0 0-102.271949-3.839998L0 128.000384V716.80009a179.19991 179.19991 0 0 0 173.055913 179.09751L179.19991 896h665.599668zM767.999616 640.000128m-51.199974 0a51.199974 51.199974 0 1 1 102.399948 0 51.199974 51.199974 0 1 1-102.399948 0ZM343.039828 465.920215a51.199974 51.199974 0 0 0 79.257561 3.276798l2.662399-3.276798 121.907139-162.534319 86.758356 69.375966a51.199974 51.199974 0 0 0 60.36477 2.636798l3.583998-2.611198 127.999936-102.399949a51.199974 51.199974 0 0 0-60.56957-82.457559l-3.379198 2.483199L665.599667 267.264314l-95.999952-76.799961a51.199974 51.199974 0 0 0-70.246365 5.913597l-2.713598 3.327998-112.639944 150.195125-112.639944-150.195125a51.199974 51.199974 0 0 0-68.223966-12.620794L199.6799 189.440353a51.199974 51.199974 0 0 0-12.620794 68.223966l2.380799 3.455998 153.599923 204.799898z"  horiz-adv-x="1024" />

    
    <glyph glyph-name="bianzu23" unicode="&#58903;" d="M484.071576 886.687454a46.545275 46.545275 0 0 0 52.456525 2.327264l3.397805-2.327264 279.271648-209.453736a46.545275 46.545275 0 0 0 18.455202-33.279871L837.815664 639.997498v-605.088571a162.908461 162.908461 0 0 0-157.323028-162.815371L674.907203-127.999535H344.435752a46.545275 46.545275 0 0 0-3.490895 92.974187L344.435752-34.908985H674.907203a69.817912 69.817912 0 0 1 69.701549 65.721928L744.725115 34.908927V616.724861L511.998741 791.269641 279.272368 616.724861v-511.998022a46.545275 46.545275 0 0 0-43.05438-46.428912L232.727093 58.181564a46.545275 46.545275 0 0 0-46.428912 43.054379L186.181818 104.726839V639.997498a46.545275 46.545275 0 0 0 15.546122 34.722775l3.071988 2.513445 279.271648 209.453736zM605.089291 151.272114a46.545275 46.545275 0 0 0 3.490895-92.974187L605.089291 58.181564h-186.181099a46.545275 46.545275 0 0 0-3.490896 92.974187L418.908192 151.272114h186.181099zM511.998741 570.179586m-46.545275 0a46.545275 46.545275 0 1 1 93.09055 0 46.545275 46.545275 0 1 1-93.09055 0Z"  horiz-adv-x="1024" />

    
    <glyph glyph-name="bianzu24" unicode="&#58904;" d="M844.799578 896a179.19991 179.19991 0 0 0 179.09751-173.055913L1023.999488 716.80009v-665.599668a179.19991 179.19991 0 0 0-173.055913-179.09751L844.799578-127.999488H153.599923a51.199974 51.199974 0 0 0-3.839998 102.271949L153.599923-25.599539h691.199655a76.799962 76.799962 0 0 1 76.671961 72.294364L921.599539 51.200422V716.80009a76.799962 76.799962 0 0 1-72.294364 76.671961L844.799578 793.600051H179.19991a76.799962 76.799962 0 0 1-76.671961-72.294364L102.399949 716.80009v-588.799706a51.199974 51.199974 0 0 0-102.271949-3.839998L0 128.000384V716.80009a179.19991 179.19991 0 0 0 173.055913 179.09751L179.19991 896h665.599668zM716.799642 691.200102a51.199974 51.199974 0 0 0 51.071974-47.359976L767.999616 640.000128v-51.199974c0-138.495931-115.865542-255.999872-255.999872-255.999872-137.727931 0-252.057474 113.638343-255.897472 248.985475L255.999872 588.800154v51.199974a51.199974 51.199974 0 0 0 102.271949 3.839998L358.399821 640.000128v-51.199974c0-82.175959 70.399965-153.599923 153.599923-153.599924 81.382359 0 150.399925 68.095966 153.497523 148.019126L665.599667 588.800154v51.199974a51.199974 51.199974 0 0 0 51.199975 51.199974zM511.999744 128.000384m-51.199974 0a51.199974 51.199974 0 1 1 102.399948 0 51.199974 51.199974 0 1 1-102.399948 0Z"  horiz-adv-x="1024" />

    
    <glyph glyph-name="bianzu21" unicode="&#58905;" d="M980.512601 847.423644a60.224347 60.224347 0 0 0 85.157227 1.445384c265.378587-256.495496 265.378587-673.24798 0-929.743476a60.224347 60.224347 0 1 0-83.711843 86.602612c216.416193 209.159159 216.416193 547.379094 0 756.538252a60.224347 60.224347 0 0 0-1.445384 85.157228zM799.417988 666.298919a60.224347 60.224347 0 0 0 85.127115 2.318637c165.616956-156.794089 165.616956-412.446444 0-569.240532a60.224347 60.224347 0 0 0-82.808477 87.445752c115.419962 109.307191 115.419962 285.041837 0 394.349027a60.224347 60.224347 0 0 0-2.318638 85.127116zM603.508186 888.556873c38.814592 21.168858 85.819695-5.26963 88.921249-48.360151L692.579996 835.679896v-903.365212c0-44.204671-45.71028-72.811236-85.036779-54.894493l-4.035031 2.017516L285.794641 52.763379H180.673042a60.224347 60.224347 0 0 0-60.073786 55.707521L120.448695 112.987726a60.224347 60.224347 0 0 0 55.707521 60.073787L180.673042 173.212074h120.448695a60.224347 60.224347 0 0 0 23.397159-4.727611l5.420192-2.61976L572.131301 33.762597V734.262095l-242.162101-132.132219a60.224347 60.224347 0 0 0-22.825028-7.046248L301.121737 594.782506H150.621093a30.051949 30.051949 0 0 1-29.961613-26.589049L120.448695 564.670332v-210.785216a60.224347 60.224347 0 0 0-120.298134-4.516826L0 353.885116v210.785216c0 81.001747 63.837808 147.007632 144.056639 150.410308L150.621093 715.231201h135.113324l317.773769 173.325672zM271.009564 444.221637m-60.224348 0a60.224347 60.224347 0 1 1 120.448695 0 60.224347 60.224347 0 1 1-120.448695 0Z"  horiz-adv-x="1264" />

    
    <glyph glyph-name="bianzu18" unicode="&#58906;" d="M844.799578 896a179.19991 179.19991 0 0 0 179.09751-173.055913L1023.999488 716.80009v-665.599668a179.19991 179.19991 0 0 0-173.055913-179.09751L844.799578-127.999488H153.599923a51.199974 51.199974 0 0 0-3.839998 102.271949L153.599923-25.599539h691.199655a76.799962 76.799962 0 0 1 76.671961 72.294364L921.599539 51.200422V716.80009a76.799962 76.799962 0 0 1-72.294364 76.671961L844.799578 793.600051H179.19991a76.799962 76.799962 0 0 1-76.671961-72.294364L102.399949 716.80009v-588.799706a51.199974 51.199974 0 0 0-102.271949-3.839998L0 128.000384V716.80009a179.19991 179.19991 0 0 0 173.055913 179.09751L179.19991 896h665.599668zM281.599859 592.332952v-416.639792c0-60.56957 58.239971-93.388753 109.465545-60.00637l315.545443 205.670297c47.692776 31.078384 47.743976 94.207953 0 125.311938l-315.545443 205.670297C339.89103 685.696105 281.599859 652.851322 281.599859 592.332952z m102.399949-57.625571l231.193484-150.681525L383.999808 233.318731V534.707381zM767.999616 640.000128m-51.199974 0a51.199974 51.199974 0 1 1 102.399948 0 51.199974 51.199974 0 1 1-102.399948 0Z"  horiz-adv-x="1024" />

    
    <glyph glyph-name="bianzu27" unicode="&#58907;" d="M1144.469915 655.058965a60.235259 60.235259 0 0 0 4.517644-120.319929L1144.469915 534.588448H120.470517a60.235259 60.235259 0 0 0-4.517644 120.319929L120.470517 655.058965h1023.999398zM1054.117027 896a210.823405 210.823405 0 0 0 210.702935-203.595174L1264.940432 685.176595v-602.352587a210.823405 210.823405 0 0 0-203.595174-210.702935L1054.117027-127.999398H180.705776a60.235259 60.235259 0 0 0-4.517644 120.31993L180.705776-7.52888h873.411251a90.352888 90.352888 0 0 1 90.2023 85.052185L1144.469915 82.824008V685.176595a90.352888 90.352888 0 0 1-85.052185 90.202299L1054.117027 775.529483H210.823405a90.352888 90.352888 0 0 1-90.202299-85.052186L120.470517 685.176595v-511.999699a60.235259 60.235259 0 0 0-120.319929-4.517645L0 173.176896V685.176595a210.823405 210.823405 0 0 0 203.595174 210.702934L210.823405 896h843.293622zM783.058363 233.412154a60.235259 60.235259 0 0 0 4.517644-120.319929L783.058363 112.941637h-90.352888a60.235259 60.235259 0 0 0-4.517645 120.319929L692.705475 233.412154h90.352888zM963.764139 173.176896m-60.235259 0a60.235259 60.235259 0 1 1 120.470518 0 60.235259 60.235259 0 1 1-120.470518 0Z"  horiz-adv-x="1264" />

    
    <glyph glyph-name="bianzu17" unicode="&#58908;" d="M665.599667 896a51.199974 51.199974 0 0 0 32.870384-11.955194l3.327998-3.046398L789.247605 793.600051H844.799578a179.19991 179.19991 0 0 0 179.09751-173.055913L1023.999488 614.400141v-563.199719a179.19991 179.19991 0 0 0-173.055913-179.09751L844.799578-127.999488H153.599923a51.199974 51.199974 0 0 0-3.839998 102.271949L153.599923-25.599539h691.199655a76.799962 76.799962 0 0 1 76.671961 72.294364L921.599539 51.200422V614.400141a76.799962 76.799962 0 0 1-72.294364 76.671961L844.799578 691.200102h-76.799962a51.199974 51.199974 0 0 0-32.870384 11.955194l-3.327998 3.046399L644.351678 793.600051H379.59661l-87.398356-87.398356a51.199974 51.199974 0 0 0-31.692784-14.796793L255.999872 691.200102h-76.799962a76.799962 76.799962 0 0 1-76.671961-72.294363L102.399949 614.400141v-486.399757a51.199974 51.199974 0 0 0-102.271949-3.839998L0 128.000384V614.400141a179.19991 179.19991 0 0 0 173.055913 179.09751L179.19991 793.600051h55.551973l87.449556 87.398357a51.199974 51.199974 0 0 0 31.692784 14.796792L358.399821 896h307.199846zM511.999744 486.400205a179.19991 179.19991 0 1 1 0-358.399821 179.19991 179.19991 0 0 1 0 358.399821z m0-102.399949a76.799962 76.799962 0 1 0 0-153.599923 76.799962 76.799962 0 0 0 0 153.599923zM767.999616 537.600179m-51.199974 0a51.199974 51.199974 0 1 1 102.399948 0 51.199974 51.199974 0 1 1-102.399948 0Z"  horiz-adv-x="1024" />

    
    <glyph glyph-name="bianzu22" unicode="&#58909;" d="M511.999767 337.454799a162.909017 162.909017 0 0 0 162.815926-157.323565L674.908784 174.545782v-69.81815a46.545433 46.545433 0 0 0-92.974503-3.490907L581.817917 104.727632v69.81815a69.81815 69.81815 0 0 1-139.519936 4.095999L442.181617 174.545782v-69.81815a46.545433 46.545433 0 0 0-92.974503-3.490907L349.09075 104.727632v69.81815a162.909017 162.909017 0 0 0 162.909017 162.909017zM907.635951 546.90925a46.545433 46.545433 0 0 0 46.42907-43.054526L954.181384 500.363816v-465.454334a162.909017 162.909017 0 0 0-157.323564-162.815926L791.272368-127.999535H209.45445a46.545433 46.545433 0 0 0-3.490907 92.974504L209.45445-34.908668h581.817918a69.81815 69.81815 0 0 1 69.701786 65.722152L861.090518 34.909482V500.363816a46.545433 46.545433 0 0 0 46.545433 46.545434zM116.363583 546.90925a46.545433 46.545433 0 0 0 46.42907-43.054526L162.909017 500.363816v-395.636184a46.545433 46.545433 0 0 0-92.974503-3.490907L69.81815 104.727632V500.363816a46.545433 46.545433 0 0 0 46.545433 46.545434zM767.999651 290.909366m-46.545433 0a46.545433 46.545433 0 1 1 93.090866 0 46.545433 46.545433 0 1 1-93.090866 0ZM791.481822 896H232.49444c-36.375256 0-80.989054-18.455264-107.845769-44.28798l-9.658178-9.727995a698.9495 698.9495 0 0 1-51.432704-59.624701c-16.430538-21.434172-30.347623-42.542526-40.983254-63.069062C8.145451 691.479366 0 665.297559 0 640.000116a209.45445 209.45445 0 0 1 209.45445-209.45445l6.795634 0.116364a209.268269 209.268269 0 0 1 140.893026 60.765063l3.583999 3.700362 3.583998-3.700362A209.268269 209.268269 0 0 1 511.999767 430.545666l6.795634 0.116364a209.268269 209.268269 0 0 1 140.893026 60.765063l3.583999 3.700362 3.583998-3.700362A209.45445 209.45445 0 0 1 1023.999535 640.000116c0 42.40289-22.365081 87.412324-59.578155 137.122847a679.656418 679.656418 0 0 1-39.121437 47.336706 650.612068 650.612068 0 0 1-19.595627 20.875627l-3.258181 3.25818C877.777056 875.496737 830.207623 896 791.481822 896zM232.49444 802.909133H791.505095c12.916358 0 35.537438-9.774541 43.938889-18.897446l8.91345-9.122905a619.333537 619.333537 0 0 0 45.56798-53.597066C915.827947 686.708459 930.908668 656.360836 930.908668 640.000116a116.363583 116.363583 0 0 0-224.44208-43.26398c-15.59272 38.9818-70.772331 38.9818-86.388324 0a116.410129 116.410129 0 0 0-216.156993 0c-15.59272 38.9818-70.772331 38.9818-86.388324 0A116.410129 116.410129 0 0 0 93.090867 640.000116c0 7.935996 4.002907 20.712718 12.148358 36.468347 7.842906 15.127266 18.850901 31.813804 32.20944 49.245069a607.185179 607.185179 0 0 0 34.443621 40.890163l10.239995 10.868359c2.094545 2.14109 3.746907 3.839998 4.957089 5.026907 9.983995 10.565813 32.814531 20.410173 45.428342 20.410172z"  horiz-adv-x="1024" />

    
    <glyph glyph-name="bianzu28" unicode="&#58910;" d="M972.640668 179.205118a51.179528 51.179528 0 0 0 51.051579-47.341064L1023.820196 128.02559v-102.282287a153.666533 153.666533 0 0 0-147.755298-153.410636l-5.732107-0.127949-102.359057-0.076769a51.179528 51.179528 0 0 0-3.915234 102.205518L767.922555-25.512995l102.359056 0.076769c26.920432 0.02559 49.106757 20.983607 51.05158 47.366654l0.153538 3.838464V128.02559a51.179528 51.179528 0 0 0 51.179528 51.179528zM51.40916 179.205118a51.179528 51.179528 0 0 0 51.05158-47.341064L102.588688 128.02559v-102.282287c0-26.869252 20.932427-49.055578 47.392243-51.02599l3.838465-0.153539 102.359056-0.076769a51.179528 51.179528 0 0 0 3.736106-102.231107l-3.838465-0.127949-102.359056 0.076769a153.692123 153.692123 0 0 0-153.385046 147.806478L0.229632 25.743303V128.02559a51.179528 51.179528 0 0 0 51.179528 51.179528zM767.973734 895.718513l102.359057-0.07677a153.692123 153.692123 0 0 0 153.385046-147.806477l0.102359-5.732107V639.820872a51.179528 51.179528 0 0 0-102.231108-3.838465L921.461139 639.820872v102.282287c0 26.869252-20.932427 49.055578-47.392243 51.025989l-3.838464 0.153539-102.359057 0.076769a51.179528 51.179528 0 0 0 0.102359 102.359057zM256.076093 895.718513a51.179528 51.179528 0 0 0 3.915234-102.205518L256.127273 793.359456l-102.359056-0.076769c-26.920432-0.02559-49.106757-20.983607-51.05158-47.366653l-0.153538-3.838465V639.820872a51.179528 51.179528 0 0 0-102.231108-3.838465L0.229632 639.820872v102.282287a153.666533 153.666533 0 0 0 147.755298 153.410635l5.732107 0.127949 102.359056 0.07677zM972.640668 435.102759a51.179528 51.179528 0 0 0 3.838464-102.231108L972.640668 332.743703H51.40916a51.179528 51.179528 0 0 0-3.838464 102.231107L51.40916 435.102759h921.231508zM716.743027 230.384646a51.179528 51.179528 0 0 0 3.838464-102.231107L716.743027 128.02559H307.306801a51.179528 51.179528 0 0 0-3.838464 102.231107L307.306801 230.384646h409.436226zM716.743027 639.820872a51.179528 51.179528 0 0 0 3.838464-102.231108L716.743027 537.461815H460.845386a51.179528 51.179528 0 0 0-3.838465 102.231108L460.845386 639.820872h255.897641zM307.306801 588.641343m-51.179528 0a51.179528 51.179528 0 1 1 102.359056 0 51.179528 51.179528 0 1 1-102.359056 0Z"  horiz-adv-x="1024" />

    
    <glyph glyph-name="bianzu25" unicode="&#58911;" d="M767.95276 896a162.897688 162.897688 0 0 0 162.804603-157.405709l0.093085-5.608335V-81.386128c0-33.440568-34.022346-55.594654-64.228232-43.051532l-3.118327 1.419537L791.223858-86.854837l-72.280031-36.163286a46.542197 46.542197 0 0 0-37.629366-1.768604l-3.979358 1.768604L605.055072-86.854837l-72.280032-36.163286a46.542197 46.542197 0 0 0-37.629366-1.768604l-3.979357 1.768604L418.886285-86.854837l-72.280031-36.163286a46.542197 46.542197 0 0 0-37.629366-1.768604l-3.979358 1.768604L232.717499-86.854837l-72.280031-36.163286a46.542197 46.542197 0 0 0-60.691025 17.616221l-1.745332 3.211412a46.542197 46.542197 0 0 0 17.616221 60.691024l3.211412 1.745332 93.084393 46.542197a46.542197 46.542197 0 0 0 37.629366 1.768603l3.979358-1.768603L325.801892-29.351953l72.280031 36.140016a46.542197 46.542197 0 0 0 37.629366 1.768603l3.979358-1.768603L511.970678-29.351953l72.280032 36.140016a46.542197 46.542197 0 0 0 37.629366 1.768603l3.979357-1.768603L698.139465-29.351953l72.280031 36.140016a46.542197 46.542197 0 0 0 37.629366 1.768603l3.979358-1.768603 25.737835-12.868917V732.985956a69.813295 69.813295 0 0 1-65.717582 69.813295L767.95276 802.915607H255.988597a69.766753 69.766753 0 0 1-69.696939-65.67104L186.175302 733.148854V128.053756a46.542197 46.542197 0 0 0-92.968037-3.490665L93.090909 128.053756V733.148854a162.851146 162.851146 0 0 0 157.312625 162.758062L255.988597 896h511.964163zM511.970678 337.493641a46.542197 46.542197 0 0 0 3.490665-92.968038L511.970678 244.409248h-186.168786a46.542197 46.542197 0 0 0-3.490665 92.968037L325.801892 337.493641h186.168786zM698.139465 500.391329a46.542197 46.542197 0 0 0 3.490665-92.968038L698.139465 407.306936H325.801892a46.542197 46.542197 0 0 0-3.490665 92.968037L325.801892 500.391329h372.337573zM698.139465 663.289017a46.542197 46.542197 0 0 0 3.490665-92.968038L698.139465 570.204624H465.428482a46.542197 46.542197 0 0 0-3.490665 92.968038L465.428482 663.289017h232.710983zM325.801892 616.74682m-46.542197 0a46.542197 46.542197 0 1 1 93.084394 0 46.542197 46.542197 0 1 1-93.084394 0Z"  horiz-adv-x="1024" />

    
    <glyph glyph-name="bianzu31" unicode="&#58912;" d="M558.545275 756.3637a46.545433 46.545433 0 0 0 3.490907-92.974503L558.545275 663.272833h-93.090867a46.545433 46.545433 0 0 0-3.490908 92.974503L465.454408 756.3637h93.090867zM698.181575 896a162.909017 162.909017 0 0 0 162.815926-157.323565L861.090592 733.090983v-698.181501a162.909017 162.909017 0 0 0-157.323565-162.815926L698.181575-127.999535H302.545391a46.545433 46.545433 0 0 0-3.490907 92.974504L302.545391-34.908668h395.636184a69.81815 69.81815 0 0 1 69.701786 65.722152L767.999725 34.909482V733.090983a69.81815 69.81815 0 0 1-65.722152 69.701787L698.181575 802.909133H325.818108a69.81815 69.81815 0 0 1-69.701787-65.722152L255.999958 733.090983v-628.363351a46.545433 46.545433 0 0 0-92.974504-3.490907L162.909091 104.727632V733.090983a162.909017 162.909017 0 0 0 157.323565 162.815926L325.818108 896h372.363467zM511.999841 104.727632m-46.545433 0a46.545433 46.545433 0 1 1 93.090867 0 46.545433 46.545433 0 1 1-93.090867 0Z"  horiz-adv-x="1024" />

    
    <glyph glyph-name="bianzu30" unicode="&#58913;" d="M964.065315 896c196.366943 0 356.140967-156.852614 360.989906-352.225675L1325.175691 534.588448v-451.64397a210.823405 210.823405 0 0 0-203.474704-210.823405l-7.228231-0.120471H933.64651a60.235259 60.235259 0 0 0-48.15809 24.063986l-2.92141 4.246586L749.68803 112.941637h-174.230486l-132.848863-212.630463a60.235259 60.235259 0 0 0-45.929385-28.099748L391.529181-127.999398H180.705776a60.235259 60.235259 0 0 0-4.517644 120.31993L180.705776-7.52888h177.453072l132.878981 212.630463a60.235259 60.235259 0 0 0 45.929385 28.099748L542.117328 233.412154h240.941035a60.235259 60.235259 0 0 0 48.158089-24.063985l2.92141-4.246586L966.986725-7.52888h147.486031a90.352888 90.352888 0 0 1 90.051712 85.172656l0.180706 5.300702V534.588448c0 130.620158-103.694998 236.875155-233.170687 240.820564L964.065315 775.529483H361.140493c-130.409335 0-236.604096-103.845586-240.549505-233.501981l-0.120471-7.529407V173.176896a60.235259 60.235259 0 0 0-120.319929-4.517645L0 173.176896V534.528213C0 731.075862 156.702025 891.000474 351.954616 895.879529L361.110376 896h602.894704zM391.529181 655.058965a60.235259 60.235259 0 0 0 60.084671-55.717614L451.76444 594.823707v-240.941035a60.235259 60.235259 0 0 0-120.319929-4.517645L331.293923 353.882672v240.941035a60.235259 60.235259 0 0 0 60.235258 60.235258zM511.999699 534.588448a60.235259 60.235259 0 0 0 4.517644-120.319929L511.999699 414.117931h-240.941035a60.235259 60.235259 0 0 0-4.517644 120.319929L271.058664 534.588448h240.941035zM933.64651 594.823707m-60.235259 0a60.235259 60.235259 0 1 1 120.470517 0 60.235259 60.235259 0 1 1-120.470517 0ZM933.64651 353.882672m-60.235259 0a60.235259 60.235259 0 1 1 120.470517 0 60.235259 60.235259 0 1 1-120.470517 0ZM813.175992 474.353189m-60.235258 0a60.235259 60.235259 0 1 1 120.470517 0 60.235259 60.235259 0 1 1-120.470517 0ZM1054.117027 474.353189m-60.235259 0a60.235259 60.235259 0 1 1 120.470518 0 60.235259 60.235259 0 1 1-120.470518 0Z"  horiz-adv-x="1325" />

    
    <glyph glyph-name="bianzu29" unicode="&#58914;" d="M835.367996 896H188.631494a53.894708 53.894708 0 0 1-53.894709-53.894708v-485.052377a53.894708 53.894708 0 0 1 53.894709-53.894708h646.736502a53.894708 53.894708 0 0 1 53.894708 53.894708V842.105292a53.894708 53.894708 0 0 1-53.894708 53.894708z m-53.894709-107.789417v-377.262959H242.526202V788.210583h538.947085zM808.420641 410.947624a188.685374 188.685374 0 0 0 188.523691-182.056326l0.107789-6.467365v-161.872756c0-101.968788-81.111536-185.020534-182.298851-188.442849l-6.467365-0.107789H188.631494a53.894708 53.894708 0 0 0-4.042103 107.65468L188.631494-20.210044h619.627463c43.115767 0 78.416801 33.684193 80.842063 75.991539l0.161684 4.769682v161.845809c0 42.927135-33.684193 78.147327-76.099328 80.626484L808.420641 303.158207H215.578848a80.815115 80.815115 0 0 1-80.707326-76.045434l-0.134737-4.742734V141.474081a53.894708 53.894708 0 0 0-107.65468-4.042103L26.947368 141.474081v80.895958a188.577585 188.577585 0 0 0 182.164115 188.469795L215.578848 410.947624h592.841793zM404.210328 680.421166a53.894708 53.894708 0 0 0 53.759971-49.852605L458.105036 626.526458v-53.894709a53.894708 53.894708 0 0 0-107.65468-4.042103L350.315619 572.631749v53.894709a53.894708 53.894708 0 0 0 53.894709 53.894708zM619.789162 680.421166a53.894708 53.894708 0 0 0 53.759971-49.852605L673.68387 626.526458v-53.894709a53.894708 53.894708 0 0 0-107.65468-4.042103L565.894453 572.631749v53.894709a53.894708 53.894708 0 0 0 53.894709 53.894708zM727.578579 141.474081m-53.894709 0a53.894708 53.894708 0 1 1 107.789417 0 53.894708 53.894708 0 1 1-107.789417 0Z"  horiz-adv-x="1024" />

    
    <glyph glyph-name="bianzu44" unicode="&#58915;" d="M487.509415 749.713868c148.796882 0 232.350366-103.253284 285.525197-285.257007l5.388188-19.139039 97.523763-365.714111a48.761882 48.761882 0 0 0-93.135194-28.598844l-1.072761 3.486475-97.475001 365.445921C641.792008 575.707093 583.570321 652.190105 487.509415 652.190105c-94.110431 0-151.893261-73.386632-193.633432-220.696276l-2.58438-9.31352-48.761881-219.428467a48.761882 48.761882 0 0 0-95.841478 17.578659l0.658285 3.583998 49.298262 221.671514C249.453909 639.195063 333.568155 749.713868 487.509415 749.713868zM560.652237 895.999512a48.761882 48.761882 0 0 0 3.657141-97.401858L560.652237 798.475749h-146.285645a48.761882 48.761882 0 0 0-3.657141 97.401859L414.366592 895.999512h146.285645zM828.842585 115.809408a48.761882 48.761882 0 0 0 3.657142-97.401859L828.842585 18.285645H292.461888a48.761882 48.761882 0 0 0-3.657141 97.401858L292.461888 115.809408h536.380697zM487.509415-79.238118m-48.761882 0a48.761882 48.761882 0 1 1 97.523763 0 48.761882 48.761882 0 1 1-97.523763 0Z"  horiz-adv-x="1024" />

    
    <glyph glyph-name="bianzu43" unicode="&#58916;" d="M512.000233 896c190.370909 0 345.134545-152.296727 349.021091-341.806545L861.091142 546.909091v-325.771636C861.091142 28.299636 704.814778-128 512.000233-128c-190.277818 0-345.134545 152.436364-349.021091 341.643636L162.909324 220.904727V314.181818a46.545455 46.545455 0 0 0 92.974545 3.490909L256.000233 314.181818v-93.253818C256.000233 79.778909 370.688233-34.909091 512.000233-34.909091c139.170909 0 252.346182 111.010909 255.906909 249.297455l0.093091 6.725818V546.885818C768.000233 688.360727 653.428596 802.909091 512.000233 802.909091c-139.170909 0-252.346182-111.057455-255.906909-249.483636l-0.093091-6.702546V500.363636a46.545455 46.545455 0 0 0-92.974546-3.490909L162.909324 500.363636v46.359273C162.909324 739.607273 319.162415 896 512.000233 896zM512.000233 523.636364a46.545455 46.545455 0 0 0 46.429091-43.054546L558.545687 477.090909v-93.090909a46.545455 46.545455 0 0 0-92.974545-3.490909L465.454778 384v93.090909a46.545455 46.545455 0 0 0 46.545455 46.545455zM512.000233 616.727273m-46.545455 0a46.545455 46.545455 0 1 1 93.090909 0 46.545455 46.545455 0 1 1-93.090909 0Z"  horiz-adv-x="1024" />

    
    <glyph glyph-name="bianzu32" unicode="&#58917;" d="M512 384m-46.545455 0a46.545455 46.545455 0 1 1 93.09091 0 46.545455 46.545455 0 1 1-93.09091 0ZM514.327273 896h-4.654546l-13.056-0.302545c-13.824-0.465455-29.835636-1.489455-46.917818-3.258182-36.305455-3.770182-68.352-10.123636-94.370909-20.340364A46.545455 46.545455 0 0 1 325.818182 828.322909c0.302545-30.789818-7.261091-64.581818-20.177455-98.234182-4.514909-11.799273-9.378909-22.690909-14.196363-32.349091l-4.468364-8.587636-1.28-2.304C267.450182 655.825455 289.838545 616.727273 325.818182 616.727273h372.363636c34.839273 0 56.901818 36.608 41.774546 67.095272l-6.074182 11.310546a348.043636 348.043636 0 0 0-15.522909 34.955636c-12.916364 33.652364-20.48 67.444364-20.177455 98.210909a46.545455 46.545455 0 0 1-29.509818 43.799273c-26.018909 10.216727-58.065455 16.570182-94.370909 20.340364A662.923636 662.923636 0 0 1 514.350545 896z m-3.653818-93.090909h3.16509l10.728728-0.256a594.152727 594.152727 0 0 0 40.122182-2.792727l7.703272-0.861091c10.146909-1.210182 19.712-2.676364 28.509091-4.375273l6.097455-1.233455 0.558545-4.980363c3.025455-23.854545 8.773818-47.755636 16.64-71.447273l2.466909-7.144727h-229.352727l2.490182 7.144727c7.866182 23.691636 13.614545 47.592727 16.64 71.447273l0.535273 4.980363 6.120727 1.233455c10.984727 2.117818 23.179636 3.863273 36.212363 5.236364a572.416 572.416 0 0 0 51.36291 3.025454zM698.181818 151.272727H325.818182c-34.839273 0-56.901818-36.608-41.774546-67.095272l6.074182-11.310546a348.043636 348.043636 0 0 0 15.522909-34.955636c12.916364-33.652364 20.48-67.444364 20.177455-98.210909a46.545455 46.545455 0 0 1 29.509818-43.799273c17.221818-6.749091 37.143273-11.822545 59.438545-15.616 17.175273-2.932364 35.095273-5.003636 53.108364-6.353455l13.544727-0.907636A571.810909 571.810909 0 0 1 512-128l12.637091 0.232727c3.863273 0.116364 8.215273 0.279273 13.032727 0.535273l4.910546 0.256a604.16 604.16 0 0 1 66.653091 7.261091c22.295273 3.793455 42.216727 8.843636 59.438545 15.616A46.545455 46.545455 0 0 1 698.181818-60.322909c-0.302545 30.789818 7.261091 64.581818 20.177455 98.234182 4.514909 11.799273 9.378909 22.690909 14.196363 32.349091l4.468364 8.587636 1.28 2.304C756.549818 112.174545 734.161455 151.272727 698.181818 151.272727z m-71.517091-93.090909l-2.466909-7.144727a379.415273 379.415273 0 0 1-16.64-71.447273l-0.558545-4.957091-6.493091-1.326545-6.912-1.256727c-17.664-3.025455-36.957091-4.980364-56.296727-6.074182l-8.192-0.418909c-5.073455-0.232727-9.402182-0.349091-12.8-0.418909h-8.61091a559.988364 559.988364 0 0 0-20.992 0.837818 513.792 513.792 0 0 0-56.296727 6.074182l-6.912 1.256727-6.516363 1.326545-0.535273 4.957091a379.415273 379.415273 0 0 1-16.64 71.447273L397.312 58.181818h229.352727zM674.909091 709.818182a162.909091 162.909091 0 0 0 162.816-157.323637L837.818182 546.909091v-325.818182a162.909091 162.909091 0 0 0-157.323637-162.816L674.909091 58.181818H325.818182a46.545455 46.545455 0 0 0-3.490909 92.974546L325.818182 151.272727h349.090909a69.818182 69.818182 0 0 1 69.701818 65.722182L744.727273 221.090909V546.909091a69.818182 69.818182 0 0 1-65.722182 69.701818L674.909091 616.727273H349.090909a69.818182 69.818182 0 0 1-69.701818-65.722182L279.272727 546.909091v-256a46.545455 46.545455 0 0 0-92.974545-3.490909L186.181818 290.909091V546.909091a162.909091 162.909091 0 0 0 157.323637 162.816L349.090909 709.818182h325.818182z"  horiz-adv-x="1024" />

    
    <glyph glyph-name="bianzu42" unicode="&#58918;" d="M592.702196 195.533768a53.882018 53.882018 0 0 0 53.747313-49.840867L646.584214 141.65175v-215.528071a53.882018 53.882018 0 0 0-107.62933-4.041152L538.820178-73.876321v215.528071a53.882018 53.882018 0 0 0 53.882018 53.882018zM808.230268-19.994303a53.882018 53.882018 0 0 0 4.041151-107.629331L808.230268-127.758339H377.174125a53.882018 53.882018 0 0 0-4.041151 107.629331L377.174125-19.994303h431.056143zM996.81733 896a188.587062 188.587062 0 0 0 188.479299-182.12122L1185.404393 707.412938v-431.056143a188.587062 188.587062 0 0 0-182.121221-188.479299L996.81733 87.769732H161.646054a53.882018 53.882018 0 0 0-4.041152 107.629331L161.646054 195.533768h835.171276a80.823027 80.823027 0 0 1 80.688322 76.081409L1077.640357 276.356795V707.412938a80.823027 80.823027 0 0 1-76.081409 80.688321L996.81733 788.235964H188.587062a80.823027 80.823027 0 0 1-80.688321-76.081409L107.764036 707.412938v-350.233116a53.882018 53.882018 0 0 0-107.629331-4.041152L0 357.179822V707.412938a188.587062 188.587062 0 0 0 182.12122 188.479298L188.587062 896h808.230268zM592.702196 357.179822m-53.882018 0a53.882018 53.882018 0 1 1 107.764036 0 53.882018 53.882018 0 1 1-107.764036 0Z"  horiz-adv-x="1185" />

    
    <glyph glyph-name="bianzu47" unicode="&#58919;" d="M1114.352286 896a210.823405 210.823405 0 0 0 210.702935-203.595174L1325.175691 685.176595v-602.352587a210.823405 210.823405 0 0 0-203.595174-210.702935L1114.352286-127.999398H180.705776a60.235259 60.235259 0 0 0-4.517644 120.31993L180.705776-7.52888h933.64651a90.352888 90.352888 0 0 1 90.2023 85.052185L1204.705174 82.824008V685.176595a90.352888 90.352888 0 0 1-85.052186 90.202299L1114.352286 775.529483H210.823405a90.352888 90.352888 0 0 1-90.202299-85.052186L120.470517 685.176595v-511.999699a60.235259 60.235259 0 0 0-120.319929-4.517645L0 173.176896V685.176595a210.823405 210.823405 0 0 0 203.595174 210.702934L210.823405 896h903.528881zM1022.553751 525.643512a60.235259 60.235259 0 0 0 67.222549-99.839941l-4.095997-2.740705-391.529182-240.941034a60.235259 60.235259 0 0 0-58.578789-2.559999l-4.547762 2.559999-391.529181 240.941034a60.235259 60.235259 0 0 0 58.81973 105.020174l4.306821-2.40941L662.587846 304.128348l359.965905 221.485046zM662.587846 594.823707m-60.235259 0a60.235259 60.235259 0 1 1 120.470517 0 60.235259 60.235259 0 1 1-120.470517 0Z"  horiz-adv-x="1325" />

    
    <glyph glyph-name="bianzu45" unicode="&#58920;" d="M698.077165 896a46.545433 46.545433 0 0 0 29.882168-10.868359l3.025453-2.769453 186.181734-186.181734a46.545433 46.545433 0 0 0 13.45163-28.811623L930.804332 663.272833v-628.363351a162.909017 162.909017 0 0 0-157.323565-162.815926L767.895315-127.999535H232.622831a46.545433 46.545433 0 0 0-3.490907 92.974504L232.622831-34.908668h535.272484a69.81815 69.81815 0 0 1 69.701787 65.722152L837.713465 34.909482V643.979751L678.784083 802.909133H255.895548a69.81815 69.81815 0 0 1-69.701787-65.722152L186.077398 733.090983v-628.363351a46.545433 46.545433 0 0 0-92.974504-3.490907L92.986531 104.727632V733.090983a162.909017 162.909017 0 0 0 157.323565 162.815926L255.895548 896h442.181617zM651.531732 896a46.545433 46.545433 0 0 0 46.429069-43.054526L698.077165 849.454567v-139.403573c0-24.738898 18.990537-44.869798 43.287253-46.661797l3.490908-0.116364H884.258899a46.545433 46.545433 0 0 0 3.490907-92.974503L884.258899 570.181966h-139.403573a139.752664 139.752664 0 0 0-139.775937 134.609394L604.986298 710.050994V849.454567a46.545433 46.545433 0 0 0 46.545434 46.545433zM698.077165 290.909366a46.545433 46.545433 0 0 0 3.490907-92.974503L698.077165 197.818499H325.713698a46.545433 46.545433 0 0 0-3.490908 92.974503L325.713698 290.909366h372.363467zM698.077165 477.0911a46.545433 46.545433 0 0 0 3.490907-92.974504L698.077165 384.000233H465.349998a46.545433 46.545433 0 0 0-3.490907 92.974503L465.349998 477.0911h232.727167zM325.713698 430.545666m-46.545434 0a46.545433 46.545433 0 1 1 93.090867 0 46.545433 46.545433 0 1 1-93.090867 0Z"  horiz-adv-x="1024" />

    
    <glyph glyph-name="bianzu49" unicode="&#58921;" d="M938.666667 896a199.111111 199.111111 0 0 0 198.997333-192.284444L1137.777778 696.888889v-455.111111a199.111111 199.111111 0 0 0-192.284445-198.997334L938.666667 42.666667H550.172444a85.333333 85.333333 0 0 1-61.667555-26.368l-3.896889-4.323556-99.555556-119.495111a56.888889 56.888889 0 0 0-90.254222 69.12l2.844445 3.697778 99.555555 119.495111a199.111111 199.111111 0 0 0 144.924445 71.480889l8.049777 0.170666H938.666667a85.333333 85.333333 0 0 1 85.191111 80.327112L1024 241.777778V696.888889a85.333333 85.333333 0 0 1-80.327111 85.191111L938.666667 782.222222H199.111111a85.333333 85.333333 0 0 1-85.191111-80.327111L113.777778 696.888889v-455.111111a85.333333 85.333333 0 0 1 80.327111-85.191111L199.111111 156.444444h28.444445a56.888889 56.888889 0 0 0 4.266666-113.635555L227.555556 42.666667h-28.444445a199.111111 199.111111 0 0 0-198.997333 192.284444L0 241.777778V696.888889a199.111111 199.111111 0 0 0 192.284444 198.997333L199.111111 896h739.555556zM341.333333 469.333333m-56.888889 0a56.888889 56.888889 0 1 1 113.777778 0 56.888889 56.888889 0 1 1-113.777778 0ZM568.888889 469.333333m-56.888889 0a56.888889 56.888889 0 1 1 113.777778 0 56.888889 56.888889 0 1 1-113.777778 0ZM796.444444 469.333333m-56.888888 0a56.888889 56.888889 0 1 1 113.777777 0 56.888889 56.888889 0 1 1-113.777777 0Z"  horiz-adv-x="1137" />

    
    <glyph glyph-name="bianzu46" unicode="&#58922;" d="M731.801746 880.998408a51.199974 51.199974 0 0 0 69.145566 2.995198l3.251198-2.995198 204.799898-204.799898a51.199974 51.199974 0 0 0 2.995198-69.145566l-2.995198-3.251198-716.799642-716.774042a51.199974 51.199974 0 0 0-31.692784-14.796792l-4.505598-0.2048L51.200486-127.999488a51.199974 51.199974 0 0 0-51.071974 47.359976L0.000512-76.799514v204.799898a51.199974 51.199974 0 0 0 102.271949 3.839998L102.400461 128.000384v-153.574323l132.377534 0.0256L900.352062 640.025728 768.000128 772.377662 240.998792 245.401925a51.199974 51.199974 0 0 0-69.145566-2.995198l-3.251198 2.995198a51.199974 51.199974 0 0 0-2.995199 69.145566l2.995199 3.251198 563.199718 563.199719zM972.800026-25.573939a51.199974 51.199974 0 0 0 3.839998-102.246349L972.800026-127.999488H563.20023a51.199974 51.199974 0 0 0-3.839998 102.271949L563.20023-25.599539h409.599796zM742.400141 614.400141m-51.199975 0a51.199974 51.199974 0 1 1 102.399949 0 51.199974 51.199974 0 1 1-102.399949 0Z"  horiz-adv-x="1024" />

    
    <glyph glyph-name="bianzu48" unicode="&#58923;" d="M588.799603 896a179.19991 179.19991 0 0 0 179.097511-173.055913L767.999514 716.80009v-76.799962a51.199974 51.199974 0 0 0-102.271949-3.839998L665.599565 640.000128v76.799962a76.799962 76.799962 0 0 1-72.294364 76.671961L588.799603 793.600051h-153.599923a76.799962 76.799962 0 0 1-76.671962-72.294364L358.399718 716.80009v-76.799962a51.199974 51.199974 0 0 0-102.271948-3.839998L255.99977 640.000128v76.799962a179.19991 179.19991 0 0 0 173.055913 179.09751L435.19968 896h153.599923zM819.199488 691.200102a51.199974 51.199974 0 0 0 51.071974-47.359976L870.399462 640.000128v-588.799706a179.19991 179.19991 0 0 0-173.055913-179.09751L691.199552-127.999488H307.199744a51.199974 51.199974 0 0 0-3.839998 102.271949L307.199744-25.599539h383.999808a76.799962 76.799962 0 0 1 76.671962 72.294364L767.999514 51.200422V588.800154H255.99977v-460.79977a51.199974 51.199974 0 0 0-47.359977-51.071974L204.799795 76.80041a51.199974 51.199974 0 0 0-51.071974 47.359976L153.599821 128.000384V640.000128a51.199974 51.199974 0 0 0 47.359976 51.071974L204.799795 691.200102h614.399693zM921.599437 691.200102a51.199974 51.199974 0 0 0 3.839998-102.271948L921.599437 588.800154H102.399846a51.199974 51.199974 0 0 0-3.839998 102.271948L102.399846 691.200102h819.199591zM614.39959 486.400205a51.199974 51.199974 0 0 0 51.071975-47.359977L665.599565 435.20023v-255.999872a51.199974 51.199974 0 0 0-102.271949-3.839998L563.199616 179.200358V435.20023a51.199974 51.199974 0 0 0 51.199974 51.199975zM409.599693 332.800282a51.199974 51.199974 0 0 0 51.071974-47.359977L460.799667 281.600307v-102.399949a51.199974 51.199974 0 0 0-102.271949-3.839998L358.399718 179.200358v102.399949a51.199974 51.199974 0 0 0 51.199975 51.199975zM409.599693 435.20023m-51.199975 0a51.199974 51.199974 0 1 1 102.399949 0 51.199974 51.199974 0 1 1-102.399949 0Z"  horiz-adv-x="1024" />

    
    <glyph glyph-name="bianzu50" unicode="&#58924;" d="M921.589159 486.392166a51.199347 51.199347 0 0 0 51.071348-47.359396L972.788506 435.192819v-383.943904a179.120916 179.120916 0 0 0-173.028194-178.941719l-6.143922-0.127998-563.192819-0.153598c-96.920364 0-175.869758 76.799021-179.120916 172.900195L51.200256 51.069717V435.192819a51.199347 51.199347 0 0 0 102.270696 3.839951L153.59895 435.192819v-384.123102a76.671022 76.671022 0 0 1 72.267879-76.517425l4.505543-0.127998 563.192819 0.153598c40.959478 0 74.367052 31.948393 76.696622 72.16548l0.127998 4.505543V435.192819a51.199347 51.199347 0 0 0 51.199348 51.199347zM511.994381 179.196083m-51.199347 0a51.199347 51.199347 0 1 1 102.398694 0 51.199347 51.199347 0 1 1-102.398694 0ZM479.994789 884.774287a51.199347 51.199347 0 0 0 60.38963 2.611167l3.583954-2.611167 255.996736-204.797389a51.199347 51.199347 0 0 0-60.568827-82.456548l-3.379157 2.483168L511.994381 779.252433l-223.997144-179.197716a51.199347 51.199347 0 0 0-69.221518 4.812739l-2.764764 3.174359a51.199347 51.199347 0 0 0 4.838338 69.195918l3.17436 2.764765 255.996736 204.797389zM511.994381 895.986944a51.199347 51.199347 0 0 0 51.071349-47.359396L563.193728 844.787597v-511.993472a51.199347 51.199347 0 0 0-102.270696-3.839951L460.795034 332.794125V844.787597a51.199347 51.199347 0 0 0 51.199347 51.199347z"  horiz-adv-x="1024" />

    
    <glyph glyph-name="bianzu52" unicode="&#58925;" d="M512 896C229.229714 896 0 666.770286 0 384s229.229714-512 512-512 512 229.229714 512 512S794.770286 896 512 896z m0-97.52381c228.912762 0 414.47619-185.563429 414.47619-414.47619s-185.563429-414.47619-414.47619-414.47619S97.52381 155.087238 97.52381 384 283.087238 798.47619 512 798.47619zM696.07619 626.566095a48.761905 48.761905 0 0 0 59.172572-54.979047l-0.682667-3.510858-73.142857-316.95238a48.761905 48.761905 0 0 0-32.719238-35.498667l-3.82781-1.048381-316.95238-73.142857a48.761905 48.761905 0 0 0-25.453715 94.086095l3.510857 0.950857 287.256381 66.29181 48.761905 211.260952-214.308571-49.468952-40.106667-120.344381a48.761905 48.761905 0 0 0-58.026667-31.939048l-3.657143 1.097143a48.761905 48.761905 0 0 0-31.890285 58.026667l1.072762 3.657142 48.761904 146.285715a48.761905 48.761905 0 0 0 31.524572 31.061333l3.754667 1.024 316.95238 73.142857zM512 384m-48.761905 0a48.761905 48.761905 0 1 1 97.52381 0 48.761905 48.761905 0 1 1-97.52381 0Z"  horiz-adv-x="1024" />

    
    <glyph glyph-name="bianzu54" unicode="&#58926;" d="M558.545243 896H325.818076a46.545433 46.545433 0 0 1-46.545433-46.545433v-465.454334l0.116363-3.467635c2.420363-34.117803 40.354891-54.458157 70.376696-36.445074L442.18166 399.56968l92.415957-55.482156c31.022531-18.618173 70.493059 3.723635 70.493059 39.912709V849.454567a46.545433 46.545433 0 0 1-46.545433 46.545433z m-46.545433-93.090867v-336.709665l-45.870525 27.531624-3.467635 1.861817a46.545433 46.545433 0 0 1-44.427616-1.861817L372.363509 466.199468V802.909133h139.636301zM186.181776 104.727632a46.545433 46.545433 0 0 0-92.974503-3.490907L93.090909 104.727632V849.454567a46.545433 46.545433 0 0 0 43.054526 46.429069L139.636342 896h558.545201c126.370852 0 229.189714-100.701045 232.634076-226.210806L930.90871 663.272833v-558.545201c0-126.370852-100.701045-229.189714-226.210806-232.634076L698.181543-127.999535H232.727209a46.545433 46.545433 0 0 0-3.490907 92.974504L232.727209-34.908668h465.454334a139.6363 139.6363 0 0 1 139.543209 134.399939L837.817843 104.727632V663.272833a139.6363 139.6363 0 0 1-134.399939 139.543209L698.181543 802.909133H186.181776v-698.181501zM698.181543 104.727632m-46.545433 0a46.545433 46.545433 0 1 1 93.090867 0 46.545433 46.545433 0 1 1-93.090867 0Z"  horiz-adv-x="1024" />

    
    <glyph glyph-name="bianzu51" unicode="&#58927;" d="M1023.999488 537.600179a51.199974 51.199974 0 0 0 3.839998-102.271949L1023.999488 435.20023H102.399949a51.199974 51.199974 0 0 0-3.839998 102.271949L102.399949 537.600179h921.599539zM870.399565 128.000384m-51.199975 0a51.199974 51.199974 0 1 1 102.399949 0 51.199974 51.199974 0 1 1-102.399949 0ZM409.599795 896a51.199974 51.199974 0 0 0 36.275182-15.078392l3.071999-3.327999 112.639943-135.193532h385.535807c97.023951 0 175.923112-76.799962 179.174311-173.132714l0.1024-6.169597v-511.794944a179.27671 179.27671 0 0 0-173.183914-179.19991l-6.143997-0.1024H153.599923a51.199974 51.199974 0 0 0-3.839998 102.271949L153.599923-25.599539h793.446003c41.036779 0 74.495963 31.999984 76.799962 72.396764l0.1536 4.505597V563.097766a76.723162 76.723162 0 0 1-72.345564 76.774362L947.122726 640.000128H537.599731a51.199974 51.199974 0 0 0-36.275182 15.078392l-3.071998 3.327999L385.638207 793.600051H179.07191a76.748762 76.748762 0 0 1-76.543961-72.422364L102.399949 716.64649V128.000384a51.199974 51.199974 0 0 0-102.271949-3.839998L0 128.000384V716.64649a179.19991 179.19991 0 0 0 172.902314 179.25111L179.07191 896H409.599795z"  horiz-adv-x="1126" />

    
    <glyph glyph-name="bianzu53" unicode="&#58928;" d="M614.4 896c-226.2272 0-409.6-183.3728-409.6-409.6s183.3728-409.6 409.6-409.6 409.6 183.3728 409.6 409.6S840.6272 896 614.4 896z m0-102.4c169.6512 0 307.2-137.5488 307.2-307.2s-137.5488-307.2-307.2-307.2-307.2 137.5488-307.2 307.2S444.7488 793.6 614.4 793.6zM194.2016 138.5984a51.2 51.2 0 0 0 75.392-69.1456l-2.9952-3.2512-179.2-179.2a51.2 51.2 0 0 0-75.392 69.1456l2.9952 3.2512 179.2 179.2zM614.4 486.4m-51.2 0a51.2 51.2 0 1 1 102.4 0 51.2 51.2 0 1 1-102.4 0Z"  horiz-adv-x="1024" />

    
    <glyph glyph-name="bianzu55" unicode="&#58929;" d="M548.570819 749.713903c-242.370874 0-438.856829-196.485955-438.856829-438.85683s196.485955-438.856829 438.856829-438.856829a437.637783 437.637783 0 0 1 317.415392 135.801808A437.467116 437.467116 0 0 1 987.427648 310.857073c0 242.370874-196.485955 438.856829-438.856829 438.85683z m0-97.52374c188.513389 0 341.33309-152.8197 341.33309-341.33309 0-89.039174-34.182071-172.61702-94.451742-235.714879A340.162805 340.162805 0 0 0 548.570819-30.476016c-188.513389 0-341.33309 152.8197-341.333089 341.333089s152.8197 341.33309 341.333089 341.33309zM148.382153 759.80761a48.76187 48.76187 0 0 0 71.801853-65.852906l-2.852569-3.096378-97.52374-97.52374a48.76187 48.76187 0 0 0-71.801854 65.852905l2.85257 3.096379 97.52374 97.52374zM548.570819 579.047358a48.76187 48.76187 0 0 0 48.639965-45.10473L597.332689 530.285488v-243.80935a48.76187 48.76187 0 0 0-97.401835-3.65714L499.808949 286.476138V530.285488a48.76187 48.76187 0 0 0 48.76187 48.76187zM670.475494 895.999512a48.76187 48.76187 0 0 0 3.65714-97.401835L670.475494 798.475773H426.666144a48.76187 48.76187 0 0 0-3.65714 97.401835L426.666144 895.999512h243.80935zM548.570819 286.476138m-48.76187 0a48.76187 48.76187 0 1 1 97.52374 0 48.76187 48.76187 0 1 1-97.52374 0Z"  horiz-adv-x="1024" />

    
    <glyph glyph-name="bianzu57" unicode="&#58930;" d="M895.99959 460.800218a51.199974 51.199974 0 0 0 51.071975-47.359977L947.199565 409.600243v-230.399885c0-167.039916-133.350333-302.950249-299.391851-307.097446L639.999718-127.999488H230.399923a51.199974 51.199974 0 0 0-3.839998 102.271949L230.399923-25.599539h409.599795a204.799898 204.799898 0 0 1 204.697498 198.399901L844.799616 179.200358v179.199911H179.199949v-230.399885a51.199974 51.199974 0 0 0-47.359977-51.071974L127.999974 76.80041a51.199974 51.199974 0 0 0-51.071974 47.359976L76.8 128.000384V409.600243a51.199974 51.199974 0 0 0 47.359976 51.071975L127.999974 460.800218h767.999616zM511.999782 896c183.807908 0 332.799834-148.991926 332.799834-332.799834a51.199974 51.199974 0 1 0-102.399949 0 230.399885 230.399885 0 0 1-460.799769 0 51.199974 51.199974 0 1 0-102.399949 0c0 183.807908 148.991926 332.799834 332.799833 332.799834zM511.999782 179.200358m-51.199974 0a51.199974 51.199974 0 1 1 102.399949 0 51.199974 51.199974 0 1 1-102.399949 0Z"  horiz-adv-x="1024" />

    
    <glyph glyph-name="bianzu58" unicode="&#58931;" d="M844.799578 896a179.19991 179.19991 0 0 0 179.09751-173.055913L1023.999488 716.80009v-665.599668a179.19991 179.19991 0 0 0-173.055913-179.09751L844.799578-127.999488H153.599923a51.199974 51.199974 0 0 0-3.839998 102.271949L153.599923-25.599539h691.199655a76.799962 76.799962 0 0 1 76.671961 72.294364L921.599539 51.200422V716.80009a76.799962 76.799962 0 0 1-72.294364 76.671961L844.799578 793.600051H179.19991a76.799962 76.799962 0 0 1-76.671961-72.294364L102.399949 716.80009v-588.799706a51.199974 51.199974 0 0 0-102.271949-3.839998L0 128.000384V716.80009A179.19991 179.19991 0 0 0 173.055913 895.8976L179.19991 896h665.599668zM281.599859 384.000256a51.199974 51.199974 0 0 0 51.071975-47.359976L332.799834 332.800282v-153.599924a51.199974 51.199974 0 0 0-102.271949-3.839998L230.399885 179.200358v153.599924a51.199974 51.199974 0 0 0 51.199974 51.199974zM742.399629 486.400205a51.199974 51.199974 0 0 0 51.071974-47.359977L793.599603 435.20023v-255.999872a51.199974 51.199974 0 0 0-102.271949-3.839998L691.199654 179.200358V435.20023a51.199974 51.199974 0 0 0 51.199975 51.199975zM511.999744 640.000128a51.199974 51.199974 0 0 0 51.071974-47.359976L563.199718 588.800154v-409.599796a51.199974 51.199974 0 0 0-102.271948-3.839998L460.79977 179.200358V588.800154a51.199974 51.199974 0 0 0 51.199974 51.199974zM742.399629 537.600179a51.199974 51.199974 0 1 1 0 102.399949 51.199974 51.199974 0 0 1 0-102.399949z"  horiz-adv-x="1024" />

    
    <glyph glyph-name="bianzu56" unicode="&#58932;" d="M316.95223 896a170.666585 170.666585 0 0 0 170.569062-164.81516L487.618815 725.333415v-146.285645a48.761882 48.761882 0 0 0-97.401858-3.657141L390.095052 579.04777v146.285645a73.142822 73.142822 0 0 1-68.851776 73.020917L316.95223 798.476237h-146.285645a73.142822 73.142822 0 0 1-73.020917-68.851777L97.523763 725.333415v-585.142579a48.761882 48.761882 0 0 0-97.401858-3.657141L0 140.190836V725.333415a170.666585 170.666585 0 0 0 164.81516 170.569061L170.666585 896h146.285645zM894.731764 655.652686a170.666585 170.666585 0 0 0 4.095998-237.12903l-4.095998-4.217903-137.898601-137.922982a48.761882 48.761882 0 0 0-71.436156 66.291778l2.462475 2.681904 137.922982 137.898601a73.142822 73.142822 0 0 1 2.950094 100.30319l-2.925713 3.145141-103.472713 103.423951a73.142822 73.142822 0 0 1-100.30319 2.950094l-3.120761-2.925713-413.744564-413.768946a48.761882 48.761882 0 0 0-71.436157 66.291778l2.438094 2.681904 413.768946 413.744565a170.666585 170.666585 0 0 0 237.153411 4.071617l4.217903-4.071617 103.42395-103.448332zM853.332927 359.619303a170.666585 170.666585 0 0 0 170.569062-164.81516L1023.999512 188.952718v-146.285645a170.666585 170.666585 0 0 0-164.815159-170.569062L853.332927-127.999512H146.285645a48.761882 48.761882 0 0 0-3.657141 97.401858L146.285645-30.475749h707.047282a73.142822 73.142822 0 0 1 73.020918 68.851776L926.475749 42.667073v146.285645a73.142822 73.142822 0 0 1-68.851776 73.020917L853.332927 262.09554H170.666585a73.142822 73.142822 0 0 1-73.020917-68.851777L97.523763 188.952718v-73.142823a48.761882 48.761882 0 0 0-97.401858-3.657141L0 115.809895v73.142823a170.666585 170.666585 0 0 0 164.81516 170.569061L170.666585 359.619303h682.666342zM243.809408 115.809895m-48.761882 0a48.761882 48.761882 0 1 1 97.523763 0 48.761882 48.761882 0 1 1-97.523763 0Z"  horiz-adv-x="1024" />

    


  </font>
</defs>
</svg>
